<svg width="512" height="512" viewBox="0 0 512 512" fill="none" xmlns="http://www.w3.org/2000/svg">
<g clip-path="url(#clip0_30_5)">
<path d="M396 354.3C416.483 335.162 432.807 312.013 443.956 286.293C455.104 260.572 460.838 232.832 460.8 204.8C460.8 91.69 369.11 0 256 0C142.89 0 51.1999 91.69 51.1999 204.8C51.1621 232.832 56.8958 260.572 68.0441 286.293C79.1924 312.013 95.5165 335.162 116 354.3L77.5699 460C76.8862 461.883 76.6645 463.902 76.9235 465.888C77.1825 467.874 77.9145 469.769 79.0581 471.413C80.2017 473.057 81.7233 474.403 83.4951 475.337C85.2669 476.271 87.2371 476.766 89.2399 476.78C90.059 476.778 90.876 476.697 91.6799 476.54L135.94 468C138.163 467.569 140.462 467.751 142.589 468.526C144.717 469.301 146.594 470.64 148.02 472.4L176.4 507.4C177.792 509.12 179.616 510.439 181.685 511.222C183.754 512.006 185.994 512.226 188.175 511.86C190.357 511.493 192.403 510.554 194.103 509.138C195.802 507.722 197.096 505.88 197.85 503.8L232.61 408.29C248.149 410.072 263.841 410.072 279.38 408.29L314.14 503.8C314.894 505.88 316.187 507.722 317.887 509.138C319.587 510.554 321.632 511.493 323.814 511.86C325.996 512.226 328.236 512.006 330.305 511.222C332.374 510.439 334.198 509.12 335.59 507.4L363.97 472.4C365.395 470.64 367.272 469.301 369.4 468.526C371.528 467.751 373.827 467.569 376.05 468L420.29 476.57C421.094 476.727 421.911 476.808 422.73 476.81C424.739 476.802 426.716 476.311 428.495 475.377C430.274 474.444 431.802 473.096 432.95 471.447C434.098 469.798 434.831 467.897 435.089 465.904C435.346 463.912 435.12 461.887 434.43 460L396 354.3ZM181.75 473.3L167.94 456.3C163.591 450.936 157.866 446.855 151.377 444.493C144.888 442.131 137.879 441.577 131.1 442.89L109.54 447L137 371.51C158.075 386.592 181.833 397.517 207 403.7L181.75 473.3ZM76.7999 204.8C76.7999 106 157.19 25.6 256 25.6C354.81 25.6 435.2 106 435.2 204.8C435.2 303.6 354.81 384 256 384C157.19 384 76.7999 303.61 76.7999 204.8ZM380.93 442.8C374.15 441.487 367.142 442.041 360.653 444.403C354.164 446.765 348.439 450.846 344.09 456.21L330.28 473.21L305 403.69C330.167 397.507 353.925 386.582 375 371.5L402.46 447L380.93 442.8ZM256 51.2C225.621 51.2 195.924 60.2085 170.664 77.0863C145.405 93.9641 125.718 117.953 114.092 146.02C102.466 174.087 99.4246 204.97 105.351 234.766C111.278 264.561 125.907 291.93 147.388 313.412C168.87 334.893 196.239 349.522 226.034 355.449C255.83 361.375 286.713 358.334 314.78 346.708C342.847 335.082 366.836 315.395 383.714 290.136C400.591 264.876 409.6 235.179 409.6 204.8C409.6 184.629 405.627 164.655 397.908 146.02C390.189 127.384 378.875 110.451 364.611 96.1884C350.348 81.9253 333.416 70.6112 314.78 62.8921C296.144 55.173 276.171 51.2 256 51.2ZM256 332.8C230.684 332.8 205.936 325.293 184.887 311.228C163.837 297.163 147.431 277.172 137.743 253.783C128.055 230.395 125.52 204.658 130.459 179.828C135.398 154.999 147.589 132.191 165.49 114.29C183.391 96.3892 206.199 84.1984 231.028 79.2595C255.858 74.3206 281.594 76.8554 304.983 86.5434C328.372 96.2314 348.363 112.638 362.428 133.687C376.493 154.737 384 179.484 384 204.8C383.963 238.736 370.465 271.272 346.469 295.269C322.472 319.265 289.936 332.763 256 332.8Z" fill="#141F38"/>
<path d="M231.077 169.779V145.77H272.904V256H246.026V169.779H231.077Z" fill="#141F38"/>
</g>
<defs>
<clipPath id="clip0_30_5">
<rect width="512" height="512" fill="white"/>
</clipPath>
</defs>
</svg>
